<svg width="480" height="320" viewBox="0 0 480 320" fill="none" xmlns="http://www.w3.org/2000/svg">
  <rect width="480" height="320" rx="32" fill="#EEF4FB"/>
  <rect x="144" y="74" width="72" height="30" rx="12" fill="#264B82"/>
  <path d="M132 104H228V234C228 248.359 216.359 260 202 260H158C143.641 260 132 248.359 132 234V104Z" fill="#FFFFFF"/>
  <path d="M146 142H214V218C214 230.15 204.15 240 192 240H168C155.85 240 146 230.15 146 218V142Z" fill="#FDB719"/>
  <path d="M302 94C326 114 344 148 344 188C344 219 334 244 316 260C298 244 288 219 288 188C288 148 306 114 330 94H302Z" fill="#16A76B"/>
  <path d="M316 104C325 128 326 154 316 184C306 154 307 128 316 104Z" fill="#4DBBE2"/>
</svg>
